<svg width="64" height="64" viewBox="0 0 64 64" fill="none" xmlns="http://www.w3.org/2000/svg">
<path d="M47.987 16.0055L31.9948 32.0045L47.9905 48.007L63.9828 32.008L47.987 16.0055Z" fill="#1D4ED8"/>
<path d="M31.9975 31.9984L16.0052 47.9974L32.0009 63.9999L47.9932 48.0009L31.9975 31.9984Z" fill="#1D4ED8"/>
<path d="M15.9997 15.9956L0.00746918 31.9947L16.0032 47.9972L31.9955 31.9981L15.9997 15.9956Z" fill="#2563EB"/>
<path d="M31.9894 -1.07754e-05L15.9971 15.999L31.9928 32.0015L47.9851 16.0025L31.9894 -1.07754e-05Z" fill="#2563EB"/>
<path d="M63.9815 32.0085L64.0085 32.0356V63.97L63.9815 63.9971L47.9903 47.9991L63.9815 32.0085Z" fill="#1E40AF"/>
<path d="M0.00384455 31.9937L15.995 47.9916L0.00384455 63.9896H-0.00845337L0.00384455 31.9937Z" fill="#2563EB"/>
</svg>
